<?xml version="1.0" encoding="UTF-8"?>
<svg xmlns="http://www.w3.org/2000/svg" width="32" height="32" viewBox="0 0 32 32" fill="none">
  <path opacity="0.5" d="M2.66675 15.9997C2.66675 23.3635 8.63628 29.333 16.0001 29.333C16.472 29.333 16.9382 29.3085 17.3974 29.2607C17.8032 28.7956 20.0001 26.177 20.0001 23.9997C20.0001 22.3837 18.7899 20.5246 18.0001 19.4833L17.9882 19.4714C17.4025 19.8075 16.7237 19.9997 16.0001 19.9997C13.7909 19.9997 12.0001 18.2088 12.0001 15.9997C12.0001 13.7905 13.7909 11.9997 16.0001 11.9997C17.1802 11.9997 18.241 12.5107 18.9731 13.3236C19.5234 12.6964 20.0001 11.8783 20.0001 10.9259C20.0001 8.67329 17.3334 8.67329 17.3334 6.42069C17.3334 4.98397 18.4182 3.8527 19.204 3.2217L19.3805 3.0986C18.3009 2.81651 17.168 2.66634 16.0001 2.66634C8.63628 2.66634 2.66675 8.63588 2.66675 15.9997Z" fill="#86bf2b"></path>
  <path d="M7.22281 5.96281C7.24455 5.98959 7.26788 6.01551 7.29281 6.04044L8.62614 7.37377C9.01667 7.76429 9.64983 7.76429 10.0404 7.37377C10.4309 6.98325 10.4309 6.35008 10.0404 5.95956L8.8345 4.7537C8.26652 5.11634 7.72784 5.52083 7.22281 5.96281Z" fill="#86bf2b"></path>
  <path d="M5.96274 24.7771C5.98952 24.7554 6.01543 24.732 6.04036 24.7071L7.37369 23.3738C7.76422 22.9832 7.76422 22.3501 7.37369 21.9596C6.98317 21.569 6.35 21.569 5.95948 21.9596L4.75362 23.1654C5.11626 23.7334 5.52075 24.2721 5.96274 24.7771Z" fill="#86bf2b"></path>
  <path d="M6.04036 18.0404C5.64983 18.431 5.01667 18.431 4.62614 18.0404C4.23562 17.6499 4.23562 17.0167 4.62614 16.6262L5.95948 15.2929C6.35 14.9024 6.98317 14.9024 7.37369 15.2929C7.76422 15.6834 7.76422 16.3166 7.37369 16.7071L6.04036 18.0404Z" fill="#86bf2b"></path>
  <path d="M7.26658 9.86666C6.82476 9.53529 6.19796 9.62483 5.86658 10.0667C5.53521 10.5085 5.62476 11.1353 6.06658 11.4667L8.73325 13.4667C9.17508 13.798 9.80188 13.7085 10.1333 13.2667C10.4646 12.8248 10.3751 12.198 9.93325 11.8667L7.26658 9.86666Z" fill="#86bf2b"></path>
  <path d="M10.0801 20.7873C10.6136 20.6443 10.9302 20.096 10.7872 19.5625L10.2992 17.7412C10.1562 17.2077 9.6079 16.8911 9.07443 17.0341C8.54097 17.177 8.22438 17.7253 8.36733 18.2588L8.85536 20.0802C8.9983 20.6136 9.54664 20.9302 10.0801 20.7873Z" fill="#86bf2b"></path>
  <path d="M13.8053 8.71293C14.357 8.687 14.8252 9.11321 14.8512 9.66488C14.8771 10.2166 14.4509 10.6848 13.8992 10.7107L12.0157 10.7992C11.464 10.8252 10.9958 10.399 10.9698 9.8473C10.9439 9.29562 11.3701 8.82738 11.9218 8.80145L13.8053 8.71293Z" fill="#86bf2b"></path>
  <path d="M16.078 7.4176C16.4925 7.05259 16.5325 6.42069 16.1675 6.00622L14.1971 3.76879C13.8321 3.35433 13.2002 3.31424 12.7857 3.67925C12.3712 4.04427 12.3311 4.67616 12.6961 5.09063L14.6666 7.32806C15.0316 7.74252 15.6635 7.78261 16.078 7.4176Z" fill="#86bf2b"></path>
  <path d="M10.8889 24.6341C10.3862 24.8626 9.79332 24.6403 9.56477 24.1375C9.33623 23.6347 9.55854 23.0419 10.0613 22.8133L11.7779 22.033C12.2807 21.8045 12.8735 22.0268 13.1021 22.5296C13.3306 23.0324 13.1083 23.6252 12.6055 23.8538L10.8889 24.6341Z" fill="#86bf2b"></path>
  <path d="M14.5266 22.7427C14.8528 22.2971 15.4785 22.2002 15.9242 22.5264L17.4458 23.64C17.8915 23.9662 17.9883 24.5919 17.6622 25.0376C17.336 25.4832 16.7103 25.5801 16.2646 25.2539L14.743 24.1403C14.2973 23.8141 14.2004 23.1884 14.5266 22.7427Z" fill="#86bf2b"></path>
  <path d="M11.9723 28.1928C11.4209 28.2235 10.9489 27.8014 10.9182 27.2499C10.8875 26.6985 11.3096 26.2266 11.8611 26.1959L13.7438 26.091C14.2952 26.0603 14.7671 26.4824 14.7978 27.0338C14.8285 27.5852 14.4064 28.0572 13.855 28.0879L11.9723 28.1928Z" fill="#86bf2b"></path>
  <path d="M19.9999 23.9998C19.9999 22.3838 18.7898 20.5247 17.9999 19.4834L17.988 19.4715C19.1902 18.7816 19.9999 17.4852 19.9999 15.9998C19.9999 14.9707 19.6114 14.0325 18.973 13.3237C19.5232 12.6965 19.9999 11.8784 19.9999 10.926C19.9999 9.79967 19.3333 9.23652 18.6666 8.67337C17.9999 8.11022 17.3333 7.54707 17.3333 6.42076C17.3333 4.98405 18.418 3.85279 19.2038 3.22177L19.3803 3.09868C19.4612 3.11982 19.5418 3.1417 19.6221 3.16431C19.0079 3.88497 19.0289 5.08485 19.7264 6.02803C20.3195 6.8301 21.2335 7.21873 22.0281 7.08574L22.1633 7.22099L21.5603 7.66695C20.4502 8.48792 20.3516 10.237 21.3401 11.5737C22.3287 12.9104 24.0299 13.3285 25.1401 12.5075L25.4741 12.2604L25.7211 12.5075C25.5058 13.1912 25.6497 14.0375 26.17 14.741C26.9561 15.804 28.4275 15.9876 29.3173 15.3445C29.3278 15.5616 29.3331 15.78 29.3331 15.9997C29.3331 22.8916 24.1043 28.5622 17.3973 29.2607C17.803 28.7957 19.9999 26.1771 19.9999 23.9998Z" fill="#86bf2b"></path>
</svg>
